<?xml version="1.0" encoding="UTF-8"?>
<svg id="Layer_1" data-name="Layer 1" xmlns="http://www.w3.org/2000/svg" viewBox="0 0 1520 855">
  <defs>
    <style>
      .cls-1, .cls-2, .cls-3, .cls-4, .cls-5, .cls-6, .cls-7, .cls-8, .cls-9, .cls-10, .cls-11, .cls-12, .cls-13, .cls-14, .cls-15 {
        stroke-linejoin: round;
      }

      .cls-1, .cls-2, .cls-3, .cls-4, .cls-5, .cls-6, .cls-7, .cls-8, .cls-9, .cls-10, .cls-16, .cls-17, .cls-18, .cls-19 {
        stroke-linecap: round;
      }

      .cls-1, .cls-2, .cls-3, .cls-4, .cls-5, .cls-6, .cls-7, .cls-8, .cls-9, .cls-10, .cls-16, .cls-17, .cls-18, .cls-19, .cls-20, .cls-21, .cls-22, .cls-23, .cls-24, .cls-25, .cls-26, .cls-27, .cls-28, .cls-29, .cls-12, .cls-13, .cls-14, .cls-15 {
        stroke: #191919;
      }

      .cls-1, .cls-27 {
        fill: #4e55a2;
      }

      .cls-2 {
        fill: #9599c7;
      }

      .cls-3 {
        fill: #383c72;
      }

      .cls-4, .cls-30, .cls-25 {
        fill: #b7d26c;
      }

      .cls-5, .cls-17, .cls-23 {
        fill: #ec6608;
      }

      .cls-6 {
        fill: #fbe0ce;
      }

      .cls-7, .cls-31, .cls-18 {
        fill: #f08539;
      }

      .cls-8, .cls-21, .cls-14 {
        fill: #fff;
      }

      .cls-9, .cls-16, .cls-32, .cls-29 {
        fill: none;
      }

      .cls-10, .cls-19 {
        fill: #f4a36b;
      }

      .cls-33, .cls-26, .cls-15 {
        fill: #191919;
      }

      .cls-11, .cls-32 {
        stroke: #fff;
        stroke-width: .75px;
      }

      .cls-11, .cls-12 {
        fill: #b8bbda;
      }

      .cls-16, .cls-17, .cls-18, .cls-32, .cls-19, .cls-20, .cls-21, .cls-22, .cls-23, .cls-24, .cls-25, .cls-26, .cls-27, .cls-28, .cls-29 {
        stroke-miterlimit: 10;
      }

      .cls-20, .cls-13 {
        fill: #e2edc4;
      }

      .cls-22 {
        fill: #f1f6e2;
      }

      .cls-24 {
        fill: #d4e4a7;
      }

      .cls-28 {
        fill: #f7c29c;
      }
    </style>
  </defs>
  <path class="cls-26" d="M1158.7,715.74l-573.55-.53,265.08-429.96,574.07,.53-264.81,429.51c-.17,.28-.47,.44-.8,.44Z"/>
  <path class="cls-26" d="M721.17,591.39l-516.53-.48c-14.04-.01-22.63-15.41-15.26-27.36L426.1,179.59l549.14,.51-253.31,410.86c-.16,.26-.45,.42-.76,.42Z"/>
  <path class="cls-11" d="M1149.92,703.83l-573.55-.53,265.08-429.96,574.07,.53-264.81,429.51c-.17,.28-.47,.44-.8,.44Z"/>
  <path class="cls-11" d="M714.47,580.9l-491.71-.46c-24.89-.02-40.12-27.33-27.06-48.52L419.4,169.1l549.14,.51-253.31,410.86c-.16,.26-.45,.42-.76,.42Z"/>
  <g>
    <line class="cls-32" x1="251.4" y1="580.47" x2="504.97" y2="169.18"/>
    <line class="cls-32" x1="343.64" y1="580.56" x2="597.22" y2="169.27"/>
    <line class="cls-32" x1="435.89" y1="580.64" x2="689.46" y2="169.35"/>
    <line class="cls-32" x1="528.13" y1="580.73" x2="781.71" y2="169.44"/>
    <line class="cls-32" x1="620.38" y1="580.81" x2="873.95" y2="169.53"/>
    <line class="cls-32" x1="293.22" y1="511.95" x2="681.64" y2="512.31"/>
    <line class="cls-32" x1="288.65" y1="443.39" x2="643.59" y2="443.72"/>
    <line class="cls-32" x1="371.31" y1="306.35" x2="833.9" y2="306.78"/>
    <line class="cls-32" x1="388.49" y1="237.81" x2="851.08" y2="238.23"/>
    <line class="cls-32" x1="335.9" y1="374.87" x2="690.83" y2="375.2"/>
  </g>
  <g>
    <line class="cls-32" x1="659.84" y1="703.38" x2="923.28" y2="276.09"/>
    <line class="cls-32" x1="761.95" y1="687.47" x2="1019.7" y2="269.41"/>
    <line class="cls-32" x1="854.2" y1="687.55" x2="1107.77" y2="276.26"/>
    <line class="cls-32" x1="938.38" y1="703.44" x2="1200.02" y2="276.35"/>
    <line class="cls-32" x1="1030.35" y1="703.13" x2="1292.26" y2="276.43"/>
    <line class="cls-32" x1="745.02" y1="618.89" x2="1099.96" y2="619.22"/>
    <line class="cls-32" x1="706.96" y1="550.3" x2="1150.73" y2="550.71"/>
    <line class="cls-32" x1="789.63" y1="413.26" x2="1252.21" y2="413.69"/>
    <line class="cls-32" x1="806.8" y1="344.71" x2="1269.39" y2="345.14"/>
    <line class="cls-32" x1="754.21" y1="481.78" x2="1109.15" y2="482.11"/>
  </g>
  <path class="cls-15" d="M1447.58,258.9h-55.89l25.79-41.92h55.94l-25.77,41.88s-.05,.04-.08,.04Z"/>
  <path class="cls-13" d="M1441.22,251.1h-55.89l25.79-41.92h55.94l-25.77,41.88s-.05,.04-.08,.04Z"/>
  <path class="cls-15" d="M131.47,790.4H50.05l37.57-61.07h81.49l-37.54,61.01s-.07,.06-.11,.06Z"/>
  <path class="cls-12" d="M122.2,779.04H40.78l37.57-61.07h81.49l-37.54,61.01s-.07,.06-.11,.06Z"/>
  <g>
    <path class="cls-15" d="M525.21,719.27l-42.5-.04,19.64-31.86,42.53,.04-19.62,31.82s-.03,.03-.06,.03Z"/>
    <path class="cls-12" d="M520.38,713.34l-42.5-.04,19.64-31.86,42.53,.04-19.62,31.82s-.03,.03-.06,.03Z"/>
  </g>
  <g>
    <path class="cls-15" d="M1427.88,194.93h-42.5l19.61-31.88h42.53l-19.59,31.84s-.03,.03-.06,.03Z"/>
    <path class="cls-13" d="M1423.04,189h-42.5l19.61-31.88h42.53l-19.59,31.84s-.03,.03-.06,.03Z"/>
  </g>
  <path class="cls-26" d="M711.97,658.05l-157.66-.15c-6.36,0-10.24-6.99-6.9-12.39L813.73,214.91c1.48-2.4,4.1-3.85,6.91-3.85l143.12,.13c16.54,.02,26.66,18.18,17.95,32.25l-249.43,403.3c-4.35,7.04-12.04,11.32-20.31,11.31Z"/>
  <path class="cls-25" d="M699.68,658.04l-166.44-.15c-6.36,0-10.24-6.99-6.9-12.39L792.66,214.89c1.48-2.4,4.1-3.85,6.91-3.85l166.44,.15c6.36,0,10.24,6.99,6.9,12.39l-266.31,430.6c-1.48,2.4-4.1,3.85-6.91,3.85Z"/>
  <path class="cls-24" d="M697,652.38l-162.47-.15c-2.69,0-4.33-2.95-2.92-5.24L794.57,220.48c1.42-2.31,3.94-3.71,6.65-3.71l163.4,.15c2.51,0,4.05,2.76,2.73,4.89l-262.89,426.4c-1.6,2.59-4.42,4.16-7.46,4.16Z"/>
  <path class="cls-29" d="M696.01,653.56l-162.47-.15c-2.69,0-4.33-2.95-2.92-5.24L793.58,221.67c1.42-2.31,3.94-3.71,6.65-3.71l163.4,.15c2.51,0,4.05,2.76,2.73,4.89l-262.89,426.4c-1.6,2.59-4.42,4.16-7.46,4.16Z"/>
  <path class="cls-20" d="M698.78,641.4h-10.18c-.86-.01-1.4-.95-.95-1.69l5.26-8.79c.39-.65,1.09-1.05,1.85-1.05h10.35c.86,.01,1.4,.95,.95,1.69l-5.17,8.64c-.44,.74-1.24,1.19-2.1,1.19Z"/>
  <path class="cls-29" d="M699.68,658.04l-166.44-.15c-6.36,0-10.24-6.99-6.9-12.39L792.66,214.89c1.48-2.4,4.1-3.85,6.91-3.85l166.44,.15c6.36,0,10.24,6.99,6.9,12.39l-266.31,430.6c-1.48,2.4-4.1,3.85-6.91,3.85Z"/>
  <g>
    <path class="cls-26" d="M671.2,530.28l-37.18-.03c-3.15,0-5.1-3.44-3.48-6.14l19.2-32.09c1.42-2.37,3.98-3.82,6.74-3.82l37.8,.03c3.15,0,5.1,3.44,3.48,6.14l-18.88,31.56c-1.62,2.7-4.53,4.35-7.68,4.35Z"/>
    <g>
      <path class="cls-24" d="M666.33,522.02l-37.18-.03c-3.15,0-5.1-3.44-3.48-6.14l19.2-32.09c1.42-2.37,3.98-3.82,6.74-3.82l37.8,.03c3.15,0,5.1,3.44,3.48,6.14l-18.88,31.56c-1.62,2.7-4.53,4.35-7.68,4.35Z"/>
      <path class="cls-25" d="M664.46,518.08l-37.18-.03c-3.15,0-5.1-3.44-3.48-6.14l19.2-32.09c1.42-2.37,3.98-3.82,6.74-3.82l37.8,.03c3.15,0,5.1,3.44,3.48,6.14l-18.88,31.56c-1.62,2.7-4.53,4.35-7.68,4.35Z"/>
    </g>
  </g>
  <path class="cls-26" d="M687.13,553.38l-37.18-.03c-3.15,0-5.1-3.44-3.48-6.14l19.2-32.09c1.42-2.37,3.98-3.82,6.74-3.82l37.8,.03c3.15,0,5.1,3.44,3.48,6.14l-18.88,31.56c-1.62,2.7-4.53,4.35-7.68,4.35Z"/>
  <path class="cls-30" d="M746.07,555.27l-37.18-.03c-3.15,0-5.1-3.44-3.48-6.14l19.2-32.09c1.42-2.37,3.98-3.82,6.74-3.82l37.8,.03c3.15,0,5.1,3.44,3.48,6.14l-18.88,31.56c-1.62,2.7-4.53,4.35-7.68,4.35Z"/>
  <path class="cls-30" d="M786.65,488.21l-37.18-.03c-3.15,0-5.1-3.44-3.48-6.14l19.2-32.09c1.42-2.37,3.98-3.82,6.74-3.82l37.8,.03c3.15,0,5.1,3.44,3.48,6.14l-18.88,31.56c-1.62,2.7-4.53,4.35-7.68,4.35Z"/>
  <path class="cls-30" d="M734.54,405.61h-37.18c-3.15,0-5.1-3.43-3.49-6.14l19.17-32.11c1.42-2.37,3.98-3.83,6.74-3.83h37.8c3.15,0,5.1,3.43,3.49,6.14l-18.85,31.58c-1.61,2.7-4.53,4.36-7.67,4.36Z"/>
  <path class="cls-30" d="M832.16,378.51h-37.18c-3.15,0-5.1-3.43-3.49-6.14l19.17-32.11c1.42-2.37,3.98-3.83,6.74-3.83h37.8c3.15,0,5.1,3.43,3.49,6.14l-18.85,31.58c-1.61,2.7-4.53,4.36-7.67,4.36Z"/>
  <path class="cls-30" d="M876.77,291.68h-37.18c-3.15,0-5.1-3.43-3.49-6.14l19.17-32.11c1.42-2.37,3.98-3.83,6.74-3.83h37.8c3.15,0,5.1,3.43,3.49,6.14l-18.85,31.58c-1.61,2.7-4.53,4.36-7.67,4.36Z"/>
  <path class="cls-30" d="M639.72,602.27l-37.18-.03c-3.15,0-5.1-3.44-3.48-6.14l19.2-32.09c1.42-2.37,3.98-3.82,6.74-3.82l37.8,.03c3.15,0,5.1,3.44,3.48,6.14l-18.88,31.56c-1.62,2.7-4.53,4.35-7.68,4.35Z"/>
  <path class="cls-24" d="M682.26,545.12l-37.18-.03c-3.15,0-5.1-3.44-3.48-6.14l19.2-32.09c1.42-2.37,3.98-3.82,6.74-3.82l37.8,.03c3.15,0,5.1,3.44,3.48,6.14l-18.88,31.56c-1.62,2.7-4.53,4.35-7.68,4.35Z"/>
  <g>
    <g>
      <path class="cls-26" d="M821.29,290.17h-37.18c-3.15,0-5.1-3.43-3.49-6.14l19.17-32.11c1.42-2.37,3.98-3.83,6.74-3.83h37.8c3.15,0,5.1,3.43,3.49,6.14l-18.85,31.58c-1.61,2.7-4.53,4.36-7.67,4.36Z"/>
      <g>
        <path class="cls-24" d="M815.48,281.92h-37.18c-3.15,0-5.1-3.43-3.49-6.14l19.17-32.11c1.42-2.37,3.98-3.83,6.74-3.83h37.8c3.15,0,5.1,3.43,3.49,6.14l-18.85,31.58c-1.61,2.7-4.53,4.36-7.67,4.36Z"/>
        <path class="cls-20" d="M813.6,277.98h-37.18c-3.15,0-5.1-3.43-3.49-6.14l19.17-32.11c1.42-2.37,3.98-3.83,6.74-3.83h37.8c3.15,0,5.1,3.43,3.49,6.14l-18.85,31.58c-1.61,2.7-4.53,4.36-7.67,4.36Z"/>
      </g>
    </g>
    <polygon class="cls-4" points="823.11 252.71 812.7 252.71 818.06 243.73 809.38 243.73 804.02 252.71 794.28 252.71 789.95 259.96 799.69 259.96 793.61 270.16 802.29 270.16 808.38 259.96 818.78 259.96 823.11 252.71"/>
  </g>
  <ellipse class="cls-4" cx="655.99" cy="498.54" rx="20.44" ry="11.6" transform="translate(-159.74 382.54) rotate(-29.14)"/>
  <ellipse class="cls-20" cx="655.99" cy="498.54" rx="12.08" ry="6.86" transform="translate(-159.74 382.54) rotate(-29.14)"/>
  <ellipse class="cls-33" cx="865.37" cy="227.21" rx="3.63" ry="2.06" transform="translate(-.9 450.97) rotate(-29.19)"/>
  <g>
    <ellipse class="cls-25" cx="940.1" cy="294.53" rx="11.85" ry="5.48" transform="translate(214.98 961.42) rotate(-60)"/>
    <ellipse class="cls-24" cx="944.22" cy="295.51" rx="11.85" ry="5.48" transform="translate(216.2 965.47) rotate(-60)"/>
  </g>
  <g>
    <ellipse class="cls-25" cx="922.07" cy="325.76" rx="11.85" ry="5.48" transform="translate(178.92 961.42) rotate(-60)"/>
    <ellipse class="cls-24" cx="926.19" cy="326.74" rx="11.85" ry="5.48" transform="translate(180.13 965.47) rotate(-60)"/>
  </g>
  <path class="cls-8" d="M1002.3,645.47c-.3,13.34-1.75,19.89-15.09,20.17,13.34,.3,14.77,6.86,15.05,20.2,.3-13.34,1.75-19.89,15.09-20.17-13.34-.3-14.77-6.86-15.05-20.2Z"/>
  <g>
    <g>
      <path class="cls-26" d="M785.06,352.39h-37.18c-3.15,0-5.1-3.43-3.49-6.14l19.17-32.11c1.42-2.37,3.98-3.83,6.74-3.83h37.8c3.15,0,5.1,3.43,3.49,6.14l-18.85,31.58c-1.61,2.7-4.53,4.36-7.67,4.36Z"/>
      <g>
        <path class="cls-24" d="M780.18,344.13h-37.18c-3.15,0-5.1-3.43-3.49-6.14l19.17-32.11c1.42-2.37,3.98-3.83,6.74-3.83h37.8c3.15,0,5.1,3.43,3.49,6.14l-18.85,31.58c-1.61,2.7-4.53,4.36-7.67,4.36Z"/>
        <path class="cls-22" d="M778.3,340.2h-37.18c-3.15,0-5.1-3.43-3.49-6.14l19.17-32.11c1.42-2.37,3.98-3.83,6.74-3.83h37.8c3.15,0,5.1,3.43,3.49,6.14l-18.85,31.58c-1.61,2.7-4.53,4.36-7.67,4.36Z"/>
      </g>
    </g>
    <polygon class="cls-8" points="751.7 340.2 741.79 340.2 789.66 298.12 799.57 298.12 751.7 340.2"/>
  </g>
  <g>
    <g>
      <path class="cls-26" d="M707.11,613.98l-37.18-.03c-3.15,0-5.1-3.44-3.48-6.14l19.2-32.09c1.42-2.37,3.98-3.82,6.74-3.82l37.8,.03c3.15,0,5.1,3.44,3.48,6.14l-18.88,31.56c-1.62,2.7-4.53,4.35-7.68,4.35Z"/>
      <g>
        <path class="cls-24" d="M702.24,605.72l-37.18-.03c-3.15,0-5.1-3.44-3.48-6.14l19.2-32.09c1.42-2.37,3.98-3.82,6.74-3.82l37.8,.03c3.15,0,5.1,3.44,3.48,6.14l-18.88,31.56c-1.62,2.7-4.53,4.35-7.68,4.35Z"/>
        <path class="cls-22" d="M700.37,601.78l-37.18-.03c-3.15,0-5.1-3.44-3.48-6.14l19.2-32.09c1.42-2.37,3.98-3.82,6.74-3.82l37.8,.03c3.15,0,5.1,3.44,3.48,6.14l-18.88,31.56c-1.62,2.7-4.53,4.35-7.68,4.35Z"/>
      </g>
    </g>
    <polygon class="cls-8" points="673.7 601.76 663.79 601.75 711.7 559.71 721.61 559.72 673.7 601.76"/>
  </g>
  <ellipse class="cls-1" cx="221.82" cy="522.16" rx="69.52" ry="177.52" transform="translate(-326.95 378.28) rotate(-52.29)"/>
  <ellipse class="cls-33" cx="216.76" cy="504.76" rx="58.61" ry="155.84" transform="translate(-312.32 356.97) rotate(-51.15)"/>
  <ellipse class="cls-1" cx="211.92" cy="484.76" rx="62.35" ry="159.22" transform="translate(-301.21 355.92) rotate(-52.29)"/>
  <ellipse class="cls-33" cx="214" cy="465.9" rx="51.15" ry="140.49" transform="translate(-285.48 350.24) rotate(-52.29)"/>
  <ellipse class="cls-1" cx="210.68" cy="445.43" rx="56.48" ry="144.22" transform="translate(-270.57 339.66) rotate(-52.29)"/>
  <ellipse class="cls-33" cx="221.82" cy="438.66" rx="44.67" ry="114.08" transform="translate(-260.89 345.85) rotate(-52.29)"/>
  <ellipse class="cls-2" cx="218.06" cy="427.02" rx="45.76" ry="116.86" transform="translate(-253.14 338.35) rotate(-52.29)"/>
  <path class="cls-18" d="M446.69,312.37c-21.94-32.99-10.93-130.24-4.2-138.97l-85.29-5.07-20.06,151.96,109.92,32.51-.37-40.43Z"/>
  <path class="cls-23" d="M615.8,59.86c48.83,23.5,132.72,55.66,185.45,30.26,0,0,25,54.27-70.29,54.7-61.94,.28-144.39-36.36-153.68-45.72"/>
  <path class="cls-23" d="M603.32,50.37s126.1,115.26,209.93,93.67c0,0,13.9,58.11-79.63,39.9-60.8-11.84-134.49-63.9-141.77-74.9"/>
  <path class="cls-18" d="M417.33,194.54l151.04-75.4c2.89-1.44,6.4-.35,7.94,2.49,10.36,19.11,49.08,86.59,91.75,111.62,53.13,31.16,65.74-7.44,65.74-7.44-58.48-37.55-91.26-107.84-107.69-154.47-8.33-23.63-34.81-35.55-57.85-25.7-28.91,12.36-96.67,25.29-136.59,30.58-3.75,.5-8.07,.17-12.22-.5-11.63-1.88-23.41,2.3-31.39,10.97l-188.46,204.73c-12.94,14.05-24.65,29.18-35.01,45.22l-20.94,32.43c-1.9,2.94-2.08,6.66-.47,9.77,10.98,21.25,57.92,101.51,143.9,108.09,4.56,.35,8.71-2.67,9.84-7.1l13.66-53.47c2.56-10.04,13.09-15.72,22.93-12.49,20.02,6.56,40.83,9.78,61.94,7.49,27.51-2.99,54.58-9.41,82.14-12.03,24.95-2.37,50.2-1.57,74.96,2.32,12.38,1.94,24.64,4.66,36.68,8.14,6.57,1.9,21.11,8.63,27.51,4.45,3.83-2.5,26.74-33.44-2.57-60.03-24.88-22.58-58.29-34.46-91.03-42.01-32.73-7.55-66.48-11.09-98.34-21.73-10.6-3.54-21.21-8.02-29.24-15.79"/>
  <circle class="cls-25" cx="618.05" cy="290.95" r="76.08"/>
  <path class="cls-27" d="M754.96,99.42s25.36,.9,46.56-12.07c2.59-1.58,5.86,.59,5.25,3.56-.82,4.04-4.23,9.16-14.78,13.08-20.43,7.59-29.93,7.28-37.03-4.57Z"/>
  <path class="cls-27" d="M699.07,197.06c.25,.26-4.96,4.38-1.1,12.64,2.39,5.11,21.94,23.81,39.88,25.46,3.41,.31,5.68-4.16,1.57-6.22-8.63-4.33-20.92-13.07-40.35-31.88"/>
  <circle class="cls-24" cx="607.79" cy="288.36" r="76.08"/>
  <path class="cls-18" d="M532.65,332c30.86,8.93,61.75,22.06,84.49,44.55"/>
  <ellipse class="cls-31" cx="567.09" cy="362.53" rx="13.9" ry="43.82" transform="translate(2.28 728.59) rotate(-65.54)"/>
  <path class="cls-27" d="M560.15,412.84s2.39-16.76,34.52-3.86c32.13,12.9,26.1,23.51,26.1,23.51l-11.17-5.2c-12.3-5.74-25.25-9.91-38.57-12.41l-10.88-2.04Z"/>
  <path class="cls-27" d="M766.04,144.11s24.7,5.84,48.02-2.73c2.85-1.05,5.63,1.73,4.45,4.52-1.6,3.8-5.94,8.16-17.05,9.94-21.52,3.45-30.77,1.29-35.42-11.73Z"/>
  <g>
    <path class="cls-25" d="M556.15,276.48c8.36-32.64,41.59-52.32,74.23-43.96,1.2,.31,2.39,.66,3.55,1.04-3.69-1.81-7.63-3.28-11.77-4.34-32.64-8.36-65.87,11.32-74.23,43.96-8.05,31.43,9.91,63.41,40.41,73.2-25.41-12.45-39.49-41.4-32.19-69.9Z"/>
    <path class="cls-20" d="M666.79,303.62c7.36-28.72-6.84-57.9-32.45-70.46-1.18-.38-2.37-.73-3.58-1.04-32.9-8.43-66.4,11.41-74.83,44.31-7.36,28.72,6.84,57.91,32.45,70.46,1.18,.38,2.37,.73,3.58,1.04,32.9,8.43,66.4-11.41,74.83-44.31Z"/>
  </g>
  <path class="cls-28" d="M769.13,171.64c-19.14,2.58-38.87-.53-57.43-5.85-.14-.04-.23,.16-.1,.23,20.4,11.68,44.65,16.61,67.98,13.39,3.75-.52,7.41-1.57,10.92-3,1.04-.42,2.08-.98,2.64-1.93,.04-.07,4.44-6.68-24.01-2.85Z"/>
  <path class="cls-28" d="M678.62,220.4c-17.25-8.68-31.78-22.39-44.09-37.26-.1-.12-.28,0-.22,.14,10.24,21.16,27.46,38.93,48.54,49.44,3.39,1.69,7,2.89,10.7,3.69,1.1,.24,2.27,.37,3.27-.1,.08-.04,7.44-3.01-18.2-15.91Z"/>
  <path class="cls-33" d="M625.04,68.61s40.02,82.26,70.37,103.73l-26.54-11.87s-41.52-74.63-43.84-91.86Z"/>
  <path class="cls-33" d="M642.3,71.81s7.35,13.96,93.19,63.3c-32.34-13.04-86.56-45.75-110.45-66.5l-2.41-4.8,19.67,8Z"/>
  <path class="cls-14" d="M795.48,94.31c.9-.51,3.66-1.95,4.64-2.26,2.07-.65,2.79,.61,1.51,2.26-1.08,1.4-3.92,2.75-5.5,3.51-1.38,.66-2.8,1.29-4.28,1.68-.8,.21-1.98,.52-2.6-.21-1.25-1.48,2.78-3.06,6.22-4.99Z"/>
  <path class="cls-14" d="M807.22,146.62c.97-.36,3.91-1.37,4.93-1.53,2.14-.33,2.67,1.02,1.15,2.47-1.28,1.22-4.29,2.12-5.97,2.63-1.46,.44-2.96,.85-4.48,1.01-.82,.08-2.04,.22-2.53-.6-1.01-1.66,3.21-2.6,6.91-3.98Z"/>
  <path class="cls-14" d="M726.66,224.26c.88,.55,3.46,2.27,4.21,2.99,1.56,1.5,.81,2.74-1.26,2.41-1.74-.28-4.29-2.12-5.71-3.14-1.24-.89-2.48-1.83-3.53-2.95-.57-.6-1.41-1.49-1.06-2.38,.7-1.81,4.02,.97,7.36,3.07Z"/>
  <path class="cls-28" d="M782.59,119.69c3.26-3.34,5.22-6.37,8.93-6.41,1.3-.01,2.72,.41,3.44,1.42,.43,.6,.55,1.34,.53,2.05-.11,3.26-3.06,5.79-6.14,7.37-3.1,1.59-9.59,4.49-13.31,3.87-2.87-.48,2.05-3.68,6.56-8.3Z"/>
  <polygon class="cls-33" points="439.16 183.64 422.95 191.73 436.41 200.01 439.16 183.64"/>
  <path class="cls-17" d="M491.2,385.78c-29.57,3.18-65.08,9.59-94.78,11.19-32.44,1.75-65.39-10.39-88.94-32.77-4.26-4.04-8.41-8.53-13.89-10.63-6.91-2.65-15-.94-21.11,3.24-6.11,4.18-10.45,10.54-13.52,17.28-14.55,31.94-2.34,70.21-11.86,103.94,11.75,4.44,24.48,7.55,38.23,8.77,5.51,.49,10.58-3.04,11.95-8.4l13.29-52.04c2.56-10.04,13.09-15.72,22.93-12.49,20.02,6.56,40.83,9.78,61.94,7.49,27.51-2.99,54.58-9.41,82.14-12.03,24.95-2.37,50.2-1.57,74.96,2.32,2.23,.35,4.45,.75,6.68,1.16-14.74-15.47-28.68-31.25-68.02-27.01Z"/>
  <path class="cls-17" d="M419.51,228.38c2,7.72,6.63,16,.79,22.91-2.83,3.35-7.24,4.85-11.62,4.6-9.48-.53-18.47-5.56-24.1-13.14-3.41-4.6-6.65-10.74-12.61-10.46-3.47,.16-6.41,2.61-7.75,5.82-4.27,10.26,2.99,22,9.61,30.39,12.6,15.98,25.11,30.59,77.42,39.31v-.02c-2.71-.63-5.44-1.28-8.15-1.97-13.87-30.64-9.79-93.46-4.38-120.36,.13-.64-.6-1.11-1.13-.73-18.5,13.22-21.28,31.35-18.08,43.66Z"/>
  <path class="cls-33" d="M399.78,292.11s29.09,10.22,40.68,6.44l2.65,7.27s-34.32-5.29-43.33-13.71Z"/>
  <ellipse class="cls-28" cx="407.19" cy="85.99" rx="10.57" ry="4.17" transform="translate(-8.96 90.1) rotate(-12.49)"/>
  <path class="cls-28" d="M589.81,48.73c4.48-.5,9.13,.65,12.87,3.18,2.21,1.5,4.15,3.56,4.92,6.12,.76,2.56,.1,5.64-2.03,7.24-2.25,1.69-5.53,1.34-7.97-.07-2.44-1.41-4.23-3.68-6-5.87-1.77-2.19-3.65-4.41-6.17-5.66-2.33-1.15-3.57-1.56-.73-3.24,1.41-.83,3.48-1.5,5.12-1.69Z"/>
  <g>
    <ellipse class="cls-1" cx="1299.67" cy="342.18" rx="69.52" ry="177.52" transform="translate(233.27 1160.12) rotate(-52.24)"/>
    <ellipse class="cls-33" cx="1301.35" cy="361.47" rx="60.57" ry="154.66" transform="translate(218.67 1168.92) rotate(-52.24)"/>
    <ellipse class="cls-1" cx="1308.3" cy="381.19" rx="62.35" ry="159.22" transform="translate(205.77 1182.07) rotate(-52.24)"/>
    <ellipse class="cls-33" cx="1302.25" cy="399.26" rx="53.08" ry="133.53" transform="translate(189.15 1184.28) rotate(-52.24)"/>
    <ellipse class="cls-1" cx="1309.5" cy="420.53" rx="56.48" ry="144.22" transform="translate(175.14 1198.26) rotate(-52.24)"/>
    <ellipse class="cls-33" cx="1297.69" cy="424.02" rx="44.48" ry="113.59" transform="translate(167.8 1190.27) rotate(-52.24)"/>
    <ellipse class="cls-2" cx="1302.1" cy="438.93" rx="45.76" ry="116.86" transform="translate(157.72 1199.55) rotate(-52.24)"/>
    <path class="cls-18" d="M1073.37,553.36c21.91,33.01,10.81,130.25,4.07,138.97l85.29,5.15,20.2-151.94-109.89-32.61,.34,40.43Z"/>
    <path class="cls-23" d="M904.03,805.72c-48.81-23.55-132.67-55.78-185.42-30.43,0,0-24.95-54.29,70.34-54.64,61.94-.23,144.36,36.49,153.64,45.86"/>
    <path class="cls-23" d="M916.5,815.22s-125.99-115.38-209.85-93.86c0,0-13.85-58.12,79.67-39.82,60.78,11.89,134.44,64.02,141.7,75.03"/>
    <path class="cls-18" d="M1102.62,671.23l-151.11,75.26c-2.89,1.44-6.4,.34-7.94-2.5-10.35-19.12-49-86.64-91.65-111.7-53.1-31.21-65.74,7.38-65.74,7.38,58.44,37.6,91.16,107.93,107.54,154.57,8.3,23.64,34.78,35.59,57.82,25.76,28.92-12.33,96.69-25.21,136.62-30.46,3.75-.49,8.07-.17,12.22,.51,11.63,1.89,23.41-2.28,31.4-10.94l188.65-204.55c12.95-14.04,24.67-29.16,35.05-45.19l20.59-31.81c2.14-3.31,2.36-7.5,.54-11-11.54-22.18-58.36-101.04-143.54-107.6-4.52-.35-8.63,2.64-9.76,7.03l-13.73,53.53c-2.57,10.04-13.1,15.7-22.95,12.47-20.02-6.58-40.82-9.81-61.93-7.54-27.52,2.96-54.59,9.36-82.15,11.96-24.95,2.35-50.2,1.53-74.96-2.39-12.38-1.96-24.64-4.68-36.67-8.17-6.57-1.91-21.11-8.65-27.51-4.48-3.83,2.5-26.77,33.41,2.52,60.04,24.86,22.6,58.26,34.51,90.99,42.09,32.73,7.58,66.47,11.15,98.32,21.82,10.59,3.55,21.2,8.04,29.23,15.81"/>
    <circle class="cls-25" cx="912.25" cy="577.23" r="76.08"/>
    <path class="cls-27" d="M764.9,766.03s-25.36-.92-46.57,12.03c-2.59,1.58-5.85-.6-5.25-3.57,.83-4.04,4.23-9.16,14.79-13.07,20.43-7.57,29.93-7.26,37.03,4.61Z"/>
    <path class="cls-27" d="M820.88,668.45c-.25-.26,4.96-4.38,1.11-12.64-2.39-5.12-21.92-23.83-39.86-25.5-3.41-.32-5.68,4.15-1.58,6.22,8.62,4.34,20.91,13.09,40.32,31.92"/>
    <circle class="cls-24" cx="901.99" cy="574.63" r="76.08"/>
    <path class="cls-18" d="M987.43,533.66c-30.85-8.96-61.73-22.12-84.45-44.63"/>
    <ellipse class="cls-31" cx="953.02" cy="503.1" rx="13.9" ry="43.82" transform="translate(99.84 1161.46) rotate(-65.49)"/>
    <path class="cls-27" d="M960,452.8s-2.41,16.76-34.53,3.83c-14.05-5.66-20.8-10.87-23.95-14.94-2.32-3,1.09-7.09,4.52-5.48l4.51,2.1c12.29,5.75,25.24,9.93,38.56,12.44l10.88,2.05Z"/>
    <path class="cls-27" d="M753.86,721.33s-24.69-5.86-48.03,2.69c-2.85,1.04-5.62-1.73-4.45-4.52,1.6-3.8,5.94-8.15,17.06-9.93,21.52-3.43,30.77-1.26,35.41,11.76Z"/>
    <g>
      <path class="cls-25" d="M851.24,560.59c-8.33,32.92,11.6,66.37,44.53,74.7,1.22,.31,2.43,.56,3.65,.8-4.14-.18-8.33-.78-12.51-1.83-32.92-8.33-52.86-41.78-44.53-74.7,8.02-31.71,39.34-51.36,71.06-45.33-28.5-1.22-54.92,17.62-62.19,46.36Z"/>
      <path class="cls-20" d="M961.61,589.72c-7.27,28.75-33.69,47.59-62.19,46.36-1.22-.23-2.43-.49-3.65-.8-32.92-8.33-52.86-41.78-44.53-74.7,7.27-28.75,33.69-47.59,62.19-46.36,1.22,.23,2.43,.49,3.65,.8,32.92,8.33,52.86,41.78,44.53,74.7Z"/>
    </g>
    <path class="cls-28" d="M841.36,645.12c17.24,8.7,31.75,22.42,44.06,37.3,.1,.12,.28,0,.22-.14-10.22-21.17-27.43-38.95-48.49-49.49-3.39-1.69-7-2.89-10.7-3.7-1.1-.24-2.27-.37-3.27,.1-.08,.04-7.44,3,18.19,15.93Z"/>
    <path class="cls-33" d="M894.79,796.96s-39.94-82.29-70.28-103.79l26.53,11.89s41.45,74.67,43.75,91.9Z"/>
    <path class="cls-33" d="M877.54,793.75s-7.34-13.96-93.13-63.39c32.33,13.07,86.52,45.83,110.39,66.6l2.41,4.8-19.67-8.02Z"/>
    <path class="cls-14" d="M724.38,771.1c-.9,.5-3.66,1.95-4.65,2.26-2.07,.65-2.79-.61-1.51-2.27,1.08-1.4,3.92-2.75,5.5-3.5,1.38-.66,2.8-1.29,4.28-1.68,.8-.21,1.98-.52,2.6,.21,1.25,1.48-2.78,3.06-6.22,4.98Z"/>
    <path class="cls-14" d="M712.68,718.78c-.97,.36-3.91,1.37-4.94,1.52-2.14,.32-2.67-1.03-1.14-2.47,1.28-1.21,4.29-2.12,5.97-2.63,1.46-.44,2.96-.85,4.49-1.01,.82-.08,2.04-.21,2.53,.6,1.01,1.66-3.22,2.6-6.91,3.98Z"/>
    <path class="cls-14" d="M793.32,641.22c-.88-.55-3.46-2.28-4.21-3-1.56-1.5-.8-2.74,1.27-2.41,1.74,.28,4.29,2.12,5.71,3.15,1.24,.89,2.48,1.84,3.52,2.95,.57,.6,1.41,1.49,1.06,2.38-.7,1.81-4.02-.98-7.36-3.07Z"/>
    <polygon class="cls-33" points="1080.78 682.1 1096.99 674.03 1083.55 665.73 1080.78 682.1"/>
    <path class="cls-19" d="M1028.92,479.92c29.57-3.15,65.09-9.53,94.79-11.1,32.44-1.72,65.38,10.45,88.91,32.85,4.25,4.05,8.4,8.53,13.88,10.64,6.91,2.66,15,.95,21.12-3.22s10.46-10.53,13.54-17.27c14.58-31.93,2.41-70.2,11.95-103.92-12.26-4.64-25.6-7.84-40.06-8.96-4.52-.35-8.62,2.66-9.74,7.05l-13.72,53.51c-2.57,10.04-13.1,15.7-22.95,12.47-20.02-6.58-40.82-9.81-61.93-7.54-27.52,2.96-54.59,9.36-82.15,11.96-24.95,2.35-50.2,1.53-74.96-2.39-2.23-.35-4.45-.76-6.67-1.16,14.73,15.49,28.65,31.27,67.99,27.08Z"/>
    <path class="cls-17" d="M1100.47,637.38c-2-7.72-6.61-16-.77-22.91,2.83-3.35,7.25-4.84,11.63-4.59,9.48,.54,18.47,5.58,24.08,13.16,3.41,4.6,6.64,10.75,12.6,10.48,3.47-.16,6.42-2.6,7.75-5.81,4.28-10.26-2.97-22-9.58-30.4-12.58-15.99-25.08-30.61-77.39-39.38v.02c2.71,.64,5.44,1.28,8.15,1.98,13.84,30.65,9.71,93.47,4.27,120.37-.13,.64,.6,1.11,1.13,.73,18.52-13.2,21.3-31.33,18.12-43.64Z"/>
    <path class="cls-33" d="M1120.26,573.67s-29.08-10.25-40.68-6.48l-2.64-7.27s34.32,5.32,43.32,13.75Z"/>
    <ellipse class="cls-28" cx="1112.66" cy="779.79" rx="10.57" ry="4.17" transform="translate(-141.83 257.93) rotate(-12.44)"/>
    <path class="cls-28" d="M930.01,816.87c-4.48,.5-9.13-.65-12.86-3.19-2.21-1.5-4.15-3.56-4.91-6.12s-.1-5.64,2.04-7.23c2.25-1.68,5.53-1.33,7.97,.08,2.44,1.41,4.23,3.68,5.99,5.88,1.77,2.19,3.64,4.42,6.16,5.67,2.33,1.16,3.57,1.57,.73,3.24-1.41,.83-3.48,1.5-5.12,1.68Z"/>
  </g>
  <path class="cls-8" d="M924.98,540.68c-.49,21.42-2.82,31.95-24.24,32.4,21.42,.49,23.73,11.02,24.18,32.45,.49-21.42,2.82-31.95,24.24-32.4-21.42-.49-23.73-11.02-24.18-32.45Z"/>
  <path class="cls-8" d="M891.65,544.1c-.26,11.3-1.49,16.85-12.78,17.09,11.3,.26,12.52,5.81,12.75,17.11,.26-11.3,1.49-16.85,12.78-17.09-11.3-.26-12.52-5.81-12.75-17.11Z"/>
  <path class="cls-21" d="M915.43,447.96c1.93,.86,4.17,1.52,6.27,1.02,.21-.05,.42-.11,.56-.25,.37-.35,.06-.89-.28-1.26-2.31-2.53-6.87-4.72-10.65-5.32-1.68-.26-2.47,.7-1.68,2.04,.96,1.62,3.95,2.94,5.77,3.76Z"/>
  <g>
    <polygon class="cls-7" points="99.98 702.46 101.6 684.16 122.38 675.43 120.48 693.2 99.98 702.46"/>
    <path class="cls-5" d="M85.39,686.86l14.58,15.6,1.62-18.3s-14.07-15.21-14.07-15.05-2.13,17.75-2.13,17.75Z"/>
    <polygon class="cls-6" points="108.22 660.15 87.52 669.11 101.6 684.16 122.38 675.43 108.22 660.15"/>
  </g>
  <g>
    <polygon class="cls-7" points="327.7 723.87 329.32 705.56 350.1 696.83 348.21 714.6 327.7 723.87"/>
    <path class="cls-5" d="M313.12,708.27l14.58,15.6,1.62-18.3s-14.07-15.21-14.07-15.05-2.13,17.75-2.13,17.75Z"/>
    <polygon class="cls-6" points="335.94 681.55 315.25 690.52 329.32 705.56 350.1 696.83 335.94 681.55"/>
  </g>
  <line class="cls-9" x1="339.55" y1="712.14" x2="407.72" y2="788.02"/>
  <line class="cls-9" x1="110.91" y1="688.92" x2="177.62" y2="761.86"/>
  <g>
    <polygon class="cls-7" points="394.5 826.99 397.72 790.65 438.98 773.32 435.21 808.6 394.5 826.99"/>
    <path class="cls-5" d="M365.55,796.02l28.95,30.97,3.22-36.33s-27.93-30.19-27.94-29.88c-.02,.31-4.23,35.24-4.23,35.24Z"/>
    <polygon class="cls-6" points="410.87 742.99 369.78 760.78 397.72 790.65 438.98 773.32 410.87 742.99"/>
  </g>
  <line class="cls-8" x1="411.75" y1="670.69" x2="403.57" y2="767.02"/>
  <g>
    <polygon class="cls-7" points="398.98 714.73 405.29 644.22 485.39 610.65 478.02 679.12 398.98 714.73"/>
    <path class="cls-5" d="M342.85,654.57l56.13,60.15,6.31-70.51s-54.14-58.64-54.17-58.03c-.03,.6-8.27,68.38-8.27,68.38Z"/>
    <polygon class="cls-6" points="430.89 551.74 351.12 586.19 405.29 644.22 485.39 610.65 430.89 551.74"/>
  </g>
  <line class="cls-9" x1="191.91" y1="769.79" x2="322.18" y2="709.51"/>
  <g>
    <polygon class="cls-6" points="1151.54 153.68 1148.77 173.54 1125.64 181.91 1128.68 162.65 1151.54 153.68"/>
    <path class="cls-10" d="M1166.58,171.48l-15.04-17.8-2.77,19.86s14.5,17.35,14.51,17.18,3.3-19.23,3.3-19.23Z"/>
    <polygon class="cls-5" points="1140.23 199.35 1163.29 190.71 1148.77 173.54 1125.64 181.91 1140.23 199.35"/>
  </g>
  <line class="cls-9" x1="1138.59" y1="167.8" x2="1069.88" y2="84.63"/>
  <g>
    <polygon class="cls-6" points="1086.61 45.67 1081.1 85.09 1035.18 101.72 1041.22 63.47 1086.61 45.67"/>
    <path class="cls-10" d="M1116.46,81.01l-29.86-35.35-5.5,39.43s28.78,34.44,28.82,34.1,6.54-38.18,6.54-38.18Z"/>
    <polygon class="cls-5" points="1064.15 136.33 1109.92 119.19 1081.1 85.09 1035.18 101.72 1064.15 136.33"/>
  </g>
  <line class="cls-8" x1="1059.23" y1="215.42" x2="1073.43" y2="110.87"/>
  <g>
    <polygon class="cls-6" points="1088.7 163.62 1079.99 226.03 1007.3 252.35 1016.86 191.8 1088.7 163.62"/>
    <path class="cls-10" d="M1135.96,219.57l-47.26-55.95-8.71,62.41s45.56,54.51,45.61,53.98c.06-.54,10.36-60.43,10.36-60.43Z"/>
    <polygon class="cls-5" points="1053.16 307.13 1125.6 280 1079.99 226.03 1007.3 252.35 1053.16 307.13"/>
  </g>
  <line class="cls-9" x1="1244.3" y1="137.8" x2="1158.98" y2="171.28"/>
  <g>
    <polygon class="cls-6" points="1251.39 111.44 1248.62 131.3 1225.49 139.68 1228.53 120.41 1251.39 111.44"/>
    <path class="cls-10" d="M1266.43,129.24l-15.04-17.8-2.77,19.86s14.5,17.35,14.51,17.18,3.3-19.23,3.3-19.23Z"/>
    <polygon class="cls-5" points="1240.08 157.11 1263.13 148.48 1248.62 131.3 1225.49 139.68 1240.08 157.11"/>
  </g>
  <line class="cls-9" x1="1375.42" y1="83.41" x2="1257.46" y2="129.68"/>
  <g>
    <polygon class="cls-6" points="1398.99 50.21 1396.22 70.07 1373.09 78.44 1376.13 59.18 1398.99 50.21"/>
    <path class="cls-10" d="M1414.03,68.01l-15.04-17.8-2.77,19.86s14.5,17.35,14.51,17.18,3.3-19.23,3.3-19.23Z"/>
    <polygon class="cls-5" points="1387.69 95.87 1410.74 87.24 1396.22 70.07 1373.09 78.44 1387.69 95.87"/>
  </g>
  <path class="cls-3" d="M1357.03,39.8c-15.07-7.01-41.63,18.11-59.31,56.12-17.68,38.01-19.8,74.51-4.73,81.52,15.07,7.01,41.63-18.11,59.31-56.12,17.68-38.01,19.8-74.51,4.73-81.52Zm-55.33,118.91c-10.97-5.1-9.43-31.67,3.44-59.33,12.87-27.66,32.2-45.95,43.17-40.85,10.97,5.1,9.43,31.67-3.44,59.33-12.87,27.66-32.2,45.95-43.17,40.85Z"/>
  <path class="cls-1" d="M1354.74,36.34c-15.07-7.01-41.63,18.11-59.31,56.12-17.68,38.01-19.8,74.51-4.73,81.52,15.07,7.01,41.63-18.11,59.31-56.12,17.68-38.01,19.8-74.51,4.73-81.52Zm-55.33,118.91c-10.97-5.1-9.43-31.67,3.44-59.33,12.87-27.66,32.2-45.95,43.17-40.85,10.97,5.1,9.43,31.67-3.44,59.33-12.87,27.66-32.2,45.95-43.17,40.85Z"/>
  <path class="cls-3" d="M72.45,636.83c9.48,9.62,36.83-1.95,61.1-25.85,24.27-23.9,36.26-51.08,26.78-60.7-9.48-9.62-36.83,1.95-61.1,25.85-24.27,23.9-36.26,51.08-26.78,60.7Zm75.92-74.77c6.9,7-1.83,26.78-19.49,44.18-17.66,17.39-37.57,25.82-44.47,18.81-6.9-7,1.83-26.78,19.49-44.18,17.66-17.39,37.57-25.82,44.47-18.81Z"/>
  <path class="cls-4" d="M73.22,640.12c9.48,9.62,36.83-1.95,61.1-25.85,24.27-23.9,36.26-51.08,26.78-60.7-9.48-9.62-36.83,1.95-61.1,25.85-24.27,23.9-36.26,51.08-26.78,60.7Zm75.92-74.77c6.9,7-1.83,26.78-19.49,44.18-17.66,17.39-37.57,25.82-44.47,18.81-6.9-7,1.83-26.78,19.49-44.18,17.66-17.39,37.57-25.82,44.47-18.81Z"/>
  <path class="cls-3" d="M193.79,711.47c-7.63,16.77,13.02,42.57,46.12,57.62,33.1,15.06,66.11,13.67,73.74-3.1,7.63-16.77-13.02-42.57-46.12-57.62-33.1-15.06-66.11-13.67-73.74,3.1Zm103.55,47.1c-5.55,12.2-29.58,13.21-53.67,2.25s-39.12-29.74-33.57-41.94c5.55-12.2,29.58-13.21,53.67-2.25,24.09,10.96,39.12,29.74,33.57,41.94Z"/>
  <path class="cls-4" d="M190.45,714.27c-7.63,16.77,13.02,42.57,46.12,57.62,33.1,15.06,66.11,13.67,73.74-3.1,7.63-16.77-13.02-42.57-46.12-57.62-33.1-15.06-66.11-13.67-73.74,3.1Zm103.55,47.1c-5.55,12.2-29.58,13.21-53.67,2.25-24.09-10.96-39.12-29.74-33.57-41.94s29.58-13.21,53.67-2.25c24.09,10.96,39.12,29.74,33.57,41.94Z"/>
  <path class="cls-3" d="M1153.26,58.99c-7.2,4.49-3.86,22.85,7.46,41.01,11.32,18.16,26.34,29.24,33.54,24.75,7.2-4.49,3.86-22.85-7.46-41.01-11.32-18.16-26.34-29.24-33.54-24.75Zm35.42,56.81c-5.24,3.27-16.17-4.8-24.41-18.01-8.24-13.22-10.67-26.58-5.43-29.85,5.24-3.27,16.17,4.8,24.41,18.01,8.24,13.22,10.67,26.58,5.43,29.85Z"/>
  <path class="cls-1" d="M1151.14,59.01c-7.2,4.49-3.86,22.85,7.46,41.01,11.32,18.16,26.34,29.24,33.54,24.75,7.2-4.49,3.86-22.85-7.46-41.01-11.32-18.16-26.34-29.24-33.54-24.75Zm35.42,56.81c-5.24,3.27-16.17-4.8-24.41-18.01-8.24-13.22-10.67-26.58-5.43-29.85s16.17,4.8,24.41,18.01c8.24,13.22,10.67,26.58,5.43,29.85Z"/>
  <line class="cls-9" x1="1308.58" y1="109.63" x2="1257.46" y2="129.68"/>
  <line class="cls-9" x1="191.91" y1="769.79" x2="246.66" y2="744.77"/>
  <path class="cls-22" d="M680.38,541.18l-37.18-.03c-3.15,0-5.1-3.44-3.48-6.14l19.2-32.09c1.42-2.37,3.98-3.82,6.74-3.82l37.8,.03c3.15,0,5.1,3.44,3.48,6.14l-18.88,31.56c-1.62,2.7-4.53,4.35-7.68,4.35Z"/>
  <polygon class="cls-4" points="697.4 512.31 692.5 506.41 690.25 510.14 666.92 510.12 663.79 515.35 687.09 515.37 684.43 519.78 697.4 512.31"/>
  <polygon class="cls-4" points="683.27 524.91 660.12 524.89 662.17 521.49 650.37 527.37 654.1 534.86 656.96 530.12 680.14 530.14 683.27 524.91"/>
  <g>
    <path class="cls-26" d="M771.8,467.99h-57.96c-4.91,0-7.95-5.35-5.44-9.57l29.88-50.06c2.21-3.7,6.2-5.96,10.51-5.96h58.93c4.91,0,7.95,5.35,5.44,9.57l-29.39,49.24c-2.51,4.21-7.06,6.79-11.96,6.79Z"/>
    <path class="cls-25" d="M764.2,455.13h-57.96c-4.91,0-7.95-5.35-5.44-9.57l29.88-50.06c2.21-3.7,6.2-5.96,10.51-5.96h58.93c4.91,0,7.95,5.35,5.44,9.57l-29.39,49.24c-2.51,4.21-7.06,6.79-11.96,6.79Z"/>
    <path class="cls-22" d="M761.28,448.99h-57.96c-4.91,0-7.95-5.35-5.44-9.57l29.88-50.06c2.21-3.7,6.2-5.96,10.51-5.96h58.93c4.91,0,7.95,5.35,5.44,9.57l-29.39,49.24c-2.51,4.21-7.06,6.79-11.96,6.79Z"/>
    <g>
      <path class="cls-25" d="M781.09,397.19c-19.69,12.86-39.38,25.73-59.08,38.59-1.46-1.5-2.19-2.25-3.66-3.75,19.69-12.86,39.39-25.73,59.08-38.59,1.46,1.5,2.19,2.25,3.65,3.76Z"/>
      <path class="cls-25" d="M746.17,393.3c-6.36,.04-13.02,3.17-16.38,8.59-2.91,4.7-.59,8.63,6.13,8.59,6.36-.04,13.02-3.16,16.39-8.59,2.91-4.7,.59-8.63-6.14-8.59Zm-1.64,8.59c-1.02,1.72-3.2,2.9-5.22,2.9s-2.78-1.18-1.75-2.9c1.03-1.72,3.2-2.9,5.21-2.9s2.78,1.18,1.76,2.9Z"/>
      <path class="cls-25" d="M764.23,418.08c-6.36,.04-13.02,3.16-16.39,8.59-2.92,4.7-.59,8.63,6.14,8.59,6.36-.04,13.01-3.16,16.38-8.59,2.91-4.7,.59-8.63-6.13-8.59Zm-1.64,8.59c-1.03,1.72-3.2,2.9-5.21,2.9s-2.78-1.18-1.76-2.9c1.02-1.72,3.2-2.9,5.22-2.9s2.78,1.18,1.75,2.9Z"/>
    </g>
  </g>
  <path class="cls-8" d="M921.69,278.1c.47-.17,.94-.42,1.38-.76,1.77-1.34,2.98-3.72,4.16-5.59,1.35-2.13,22.01-36.18,25.74-42.4,1.02-1.71-.21-3.88-2.2-3.88l-65.74-.12c-3.82,0-7.37,6.32-1.84,7.1,1.49,.21,15.86,.13,17.37,.13,3.23,0,6.46,.01,9.69,.09s7.57-.06,8.93,3.76c.59,1.66,.33,3.54-.42,5.13-1.37,2.89-3.59,4.19-6.18,5.74-2.12,1.27-3.99,3.01-3.98,5.66,.01,3.31,3.25,5.24,6.12,5.83,3.35,.69,6.89,1.16,7.41,5.34,.57,4.64-6.42,8.07-4.99,12.52,.7,2.17,2.72,2.09,4.56,1.44Z"/>
  <path class="cls-8" d="M851.49,224.55h-24.38c-2,0-3.84,1.12-4.77,2.89h0c-.87,1.68,.35,3.68,2.24,3.68h24.07c2.01,0,3.88-1.02,4.96-2.71h0c1.07-1.67-.13-3.86-2.11-3.86Z"/>
  <path class="cls-8" d="M813.47,224.42h-5.94c-2,0-3.84,1.12-4.77,2.89h0c-.87,1.68,.35,3.68,2.24,3.68h5.62c2.01,0,3.88-1.02,4.96-2.71h0c1.07-1.67-.13-3.86-2.11-3.86Z"/>
  <path class="cls-20" d="M562.7,639.63h-10.18c-.86-.01-1.4-.95-.95-1.69l5.26-8.79c.39-.65,1.09-1.05,1.85-1.05h10.35c.86,.01,1.4,.95,.95,1.69l-5.17,8.64c-.44,.74-1.24,1.19-2.1,1.19Z"/>
  <g>
    <ellipse class="cls-25" cx="629.86" cy="626.81" rx="24.85" ry="14.11" transform="translate(-225.51 386.06) rotate(-29.14)"/>
    <path class="cls-8" d="M636.77,616.82c-.03,.44,.05,.9,.27,1.38,1.27,2.74,5.79,4.09,3.56,7.88-.52,.88-1.47,1.18-1.76,2.16-.06,.19-.11,.4-.06,.59,.17,.65,1.17,.56,1.8,.27,2.9-1.36,5.09-4.03,5.78-7.05,.64-2.78-.61-6.53-3.46-7.66-2.26-.9-5.94-.5-6.13,2.44Z"/>
  </g>
  <path class="cls-8" d="M881.67,338.62h0c-1.43,0-2.75,.74-3.5,1.96l-37.04,60.64c-.89,1.45,.16,3.31,1.86,3.31h.39c1.51,0,2.92-.79,3.7-2.09l36.52-60.39c.91-1.51-.17-3.44-1.94-3.44Z"/>
  <path class="cls-8" d="M837.96,409.39h0c-1.43,0-2.75,.74-3.5,1.96l-4.97,7.24c-.89,1.45,.16,3.31,1.86,3.31h.39c1.51,0,2.92-.79,3.7-2.09l4.46-6.99c.91-1.51-.17-3.44-1.94-3.44Z"/>
  <path class="cls-16" d="M662.55,285.47c.49,5.37,.1,10.92-1.3,16.45-6.62,26.26-33.27,42.18-59.53,35.56-26.26-6.62-42.18-33.27-35.56-59.53,6.62-26.26,33.27-42.18,59.53-35.56,4.14,1.04,8.02,2.58,11.59,4.54"/>
  <path class="cls-8" d="M661.49,281.26c-1.08,0-2.06-.74-2.31-1.84-2.4-10.3-8.28-19.58-16.58-26.13-1.03-.82-1.21-2.31-.39-3.34s2.31-1.21,3.34-.39c9.14,7.21,15.62,17.44,18.26,28.79,.3,1.28-.5,2.56-1.78,2.86-.18,.04-.36,.06-.54,.06Z"/>
  <path class="cls-16" d="M956.14,571.89c.49,5.38,.09,10.92-1.31,16.45-6.64,26.25-33.31,42.15-59.56,35.51-26.25-6.64-42.15-33.31-35.51-59.56,6.64-26.25,33.31-42.15,59.56-35.51,4.14,1.05,8.01,2.59,11.59,4.55"/>
  <path class="cls-8" d="M955.08,567.68c-1.08,0-2.06-.74-2.31-1.84-2.39-10.3-8.26-19.59-16.55-26.14-1.03-.82-1.21-2.31-.39-3.34s2.32-1.21,3.34-.39c9.13,7.22,15.61,17.45,18.24,28.8,.3,1.28-.5,2.56-1.78,2.85-.18,.04-.36,.06-.54,.06Z"/>
  <path class="cls-8" d="M629.07,252.03c-.43,19.75-2.57,29.46-22.32,29.89,19.75,.43,21.88,10.14,22.32,29.89,.43-19.75,2.57-29.46,22.32-29.89-19.75-.43-21.88-10.14-22.32-29.89Z"/>
  <path class="cls-8" d="M606.95,292.39c-.21,9.62-1.25,14.35-10.87,14.56,9.62,.21,10.66,4.94,10.87,14.56,.21-9.62,1.25-14.35,10.87-14.56-9.62-.21-10.66-4.94-10.87-14.56Z"/>
  <line class="cls-9" x1="665.44" y1="237.38" x2="671.36" y2="237.38"/>
  <line class="cls-9" x1="656.76" y1="229.09" x2="661.3" y2="229.09"/>
  <line class="cls-9" x1="673.93" y1="250.01" x2="682.02" y2="250.01"/>
  <line class="cls-9" x1="680.04" y1="263.83" x2="688.92" y2="263.83"/>
  <line class="cls-9" x1="683.79" y1="279.61" x2="693.07" y2="279.61"/>
  <line class="cls-9" x1="683.6" y1="295.8" x2="693.46" y2="295.8"/>
  <line class="cls-9" x1="680.44" y1="311.78" x2="691.1" y2="311.78"/>
  <line class="cls-9" x1="674.12" y1="326.58" x2="684.98" y2="326.58"/>
  <line class="cls-9" x1="664.45" y1="339.61" x2="675.9" y2="339.61"/>
  <line class="cls-9" x1="654.15" y1="348.92" x2="667.22" y2="348.92"/>
  <line class="cls-9" x1="641.76" y1="356.48" x2="656.43" y2="356.48"/>
  <line class="cls-9" x1="624.81" y1="362.57" x2="643.67" y2="362.57"/>
  <line class="cls-9" x1="967.74" y1="535.32" x2="975.64" y2="535.33"/>
  <line class="cls-9" x1="974.24" y1="550.72" x2="983.52" y2="550.73"/>
  <line class="cls-9" x1="977.98" y1="565.92" x2="987.55" y2="565.93"/>
  <line class="cls-9" x1="978.06" y1="581.51" x2="988.03" y2="581.52"/>
  <line class="cls-9" x1="975.68" y1="596.02" x2="985.65" y2="596.02"/>
  <line class="cls-9" x1="969.7" y1="609.51" x2="980.58" y2="609.52"/>
  <line class="cls-9" x1="962.19" y1="622.13" x2="973.07" y2="622.14"/>
  <line class="cls-9" x1="952.06" y1="632.09" x2="964.51" y2="632.1"/>
  <line class="cls-9" x1="940.61" y1="640.46" x2="954.29" y2="640.48"/>
  <line class="cls-9" x1="924.52" y1="647.46" x2="940.62" y2="647.66"/>
  <g>
    <g>
      <path class="cls-26" d="M882.72,331.92h-37.18c-3.15,0-5.1-3.43-3.49-6.14l19.17-32.11c1.42-2.37,3.98-3.83,6.74-3.83h37.8c3.15,0,5.1,3.43,3.49,6.14l-18.85,31.58c-1.61,2.7-4.53,4.36-7.67,4.36Z"/>
      <g>
        <path class="cls-24" d="M877.84,323.66h-37.18c-3.15,0-5.1-3.43-3.49-6.14l19.17-32.11c1.42-2.37,3.98-3.83,6.74-3.83h37.8c3.15,0,5.1,3.43,3.49,6.14l-18.85,31.58c-1.61,2.7-4.53,4.36-7.67,4.36Z"/>
        <path class="cls-24" d="M875.97,319.73h-37.18c-3.15,0-5.1-3.43-3.49-6.14l19.17-32.11c1.42-2.37,3.98-3.83,6.74-3.83h37.8c3.15,0,5.1,3.43,3.49,6.14l-18.85,31.58c-1.61,2.7-4.53,4.36-7.67,4.36Z"/>
      </g>
    </g>
    <polygon class="cls-8" points="849.92 319.73 840.01 319.73 887.88 277.65 897.79 277.65 849.92 319.73"/>
    <path class="cls-8" d="M870.41,319.02l23.24-20.43,8.84-14.81c.42-.7,.59-1.45,.57-2.17l-42.56,37.41h9.91Z"/>
  </g>
  <g>
    <polygon class="cls-7" points="182.86 796.1 184.48 777.8 205.26 769.07 203.36 786.84 182.86 796.1"/>
    <path class="cls-5" d="M168.27,780.5l14.58,15.6,1.62-18.3s-14.07-15.21-14.07-15.05-2.13,17.75-2.13,17.75Z"/>
    <polygon class="cls-6" points="191.1 753.79 170.4 762.75 184.48 777.8 205.26 769.07 191.1 753.79"/>
  </g>
  <polygon class="cls-12" points="330.84 778.98 333.09 795.08 348.16 788.98 335.34 798.97 348.16 808.97 333.09 802.87 330.84 818.97 328.6 802.87 313.52 808.97 326.35 798.97 313.52 788.98 328.6 795.08 330.84 778.98"/>
  <polygon class="cls-12" points="1005.11 102.02 1008.09 123.43 1028.12 115.31 1011.08 128.6 1028.12 141.89 1008.09 133.77 1005.11 155.18 1002.12 133.77 982.09 141.89 999.13 128.6 982.09 115.31 1002.12 123.43 1005.11 102.02"/>
  <circle class="cls-15" cx="281.13" cy="692.41" r="3.43"/>
  <circle class="cls-15" cx="1437.87" cy="100.35" r="3.43"/>
  <circle class="cls-15" cx="61.94" cy="662.9" r="1.8"/>
  <circle class="cls-15" cx="294.82" cy="793.94" r="1.8"/>
  <circle class="cls-15" cx="465.33" cy="754.47" r="1.8"/>
  <circle class="cls-15" cx="511" cy="621.56" r="1.8"/>
  <circle class="cls-15" cx="1336.82" cy="217.67" r="1.8"/>
  <circle class="cls-15" cx="997.16" cy="195.35" r="1.8"/>
  <circle class="cls-15" cx="1131.58" cy="119.79" r="1.8"/>
  <circle class="cls-15" cx="1249.77" cy="190.61" r="1.8"/>
  <circle class="cls-15" cx="62.58" cy="555.31" r="3"/>
  <path class="cls-8" d="M1066.56,177.82l12.47-4.7c1.29-.48,2.63,.57,2.46,1.93l-1.34,11.14c-.21,1.76-2.55,2.22-3.42,.67l-2.47-4.42c-.32-.57-.91-.92-1.55-.94l-5.55-.14c-2.01-.05-2.48-2.84-.6-3.54Z"/>
  <path class="cls-8" d="M1070.76,56.71l7.71-2.91c.8-.3,1.63,.35,1.53,1.2l-.83,6.89c-.13,1.09-1.58,1.38-2.12,.42l-1.53-2.74c-.2-.35-.56-.57-.96-.58l-3.44-.08c-1.24-.03-1.54-1.75-.37-2.19Z"/>
  <path class="cls-8" d="M1240.84,118.37l4.19-1.58c.43-.16,.88,.19,.83,.65l-.45,3.74c-.07,.59-.86,.75-1.15,.23l-.83-1.49c-.11-.19-.3-.31-.52-.32l-1.86-.05c-.68-.02-.83-.95-.2-1.19Z"/>
  <path class="cls-8" d="M1388.96,57.81l4.19-1.58c.43-.16,.88,.19,.83,.65l-.45,3.74c-.07,.59-.86,.75-1.15,.23l-.83-1.49c-.11-.19-.3-.31-.52-.32l-1.86-.05c-.68-.02-.83-.95-.2-1.19Z"/>
  <path class="cls-8" d="M1077.2,193.2h0c-1.04,.52-1.76,1.52-1.93,2.67l-2.18,15.23c-.2,1.4,1.21,2.49,2.51,1.94l.5-.21c.95-.4,1.62-1.28,1.75-2.3l1.98-15.47c.19-1.45-1.32-2.53-2.64-1.87Z"/>
  <path class="cls-8" d="M1076.16,67.12h0c-.69,.34-1.16,1-1.27,1.76l-1.43,10.02c-.13,.92,.79,1.64,1.65,1.28l.33-.14c.63-.26,1.06-.84,1.15-1.51l1.31-10.18c.12-.96-.87-1.66-1.73-1.23Z"/>
  <path class="cls-8" d="M453.78,615.56l17.66-7.36c1.37-.57,1.75-2.33,.74-3.41l-12.52-13.52c-1.43-1.54-3.99-.3-3.67,1.78l1.1,7.01c.37,2.36-.23,4.76-1.66,6.67l-4.18,5.6c-1.3,1.74,.53,4.08,2.53,3.24Z"/>
  <path class="cls-8" d="M419.28,777.39l11.52-4.82c.89-.37,1.14-1.52,.48-2.23l-8.18-8.82c-.93-1.01-2.61-.19-2.39,1.16l.72,4.58c.24,1.54-.15,3.11-1.08,4.35l-2.73,3.65c-.85,1.13,.35,2.66,1.65,2.11Z"/>
  <path class="cls-8" d="M338.13,698.52l5.98-2.47c.46-.19,.59-.78,.25-1.14l-4.24-4.51c-.48-.52-1.35-.1-1.24,.59l.37,2.34c.13,.79-.08,1.59-.56,2.23l-1.41,1.87c-.44,.58,.18,1.36,.86,1.08Z"/>
  <path class="cls-8" d="M424.64,626.08l.81,.89c.63,.69,1.62,.91,2.48,.56,0,0,16.84-7.21,17.4-7.48,2.33-1.14,.58-2.64,.58-2.64-.84-.84-2.29-.88-3.35-.45l-17.46,7.09c-.82,.33-1.05,1.37-.46,2.02Z"/>
  <path class="cls-8" d="M401.67,783.47l.48,.53c.37,.41,.95,.54,1.46,.33,0,0,9.9-4.24,10.22-4.4,1.37-.67,.34-1.55,.34-1.55-.49-.49-1.35-.52-1.97-.26l-10.26,4.17c-.48,.19-.62,.81-.27,1.19Z"/>
  <path class="cls-8" d="M192.68,770.36l5.98-2.47c.46-.19,.59-.78,.25-1.14l-4.24-4.51c-.48-.52-1.35-.1-1.24,.59l.37,2.34c.13,.79-.08,1.59-.56,2.23l-1.41,1.87c-.44,.58,.18,1.36,.86,1.08Z"/>
  <path class="cls-8" d="M109.99,676.42l5.98-2.47c.46-.19,.59-.78,.25-1.14l-4.24-4.51c-.48-.52-1.35-.1-1.24,.59l.37,2.34c.13,.79-.08,1.59-.56,2.23l-1.41,1.87c-.44,.58,.18,1.36,.86,1.08Z"/>
</svg>